<?xml version="1.0" encoding="UTF-8"?>
<svg id="Ebene_1" xmlns="http://www.w3.org/2000/svg" version="1.1" viewBox="0 0 617.87 283.6">
    <!-- Generator: Adobe Illustrator 29.8.0, SVG Export Plug-In . SVG Version: 2.1.1 Build 160)  -->
    <defs>
        <style>
            .st0 {
            fill: #003963;
            }
        </style>
    </defs>
    <g>
        <path class="st0" d="M160,21.12c37.34,0,71.32,14.39,96.7,37.93.41.48,1.1.06.5-.64C231.32,23,189.49,0,142.27,0,63.7,0,0,63.7,0,142.28c0,38.31,15.15,73.08,39.77,98.65.44.51,1.15.3.55-.58-14.3-22.19-22.6-48.6-22.6-76.96,0-78.58,63.7-142.28,142.27-142.28"/>
        <path class="st0" d="M170.95,280.83c-21.34-.44-42.83-6.66-62.02-19.18-54.68-35.67-70.09-108.9-34.42-163.58,16.84-25.8,42.04-42.86,69.71-49.92.62-.13.73-.81-.27-.75-36.15,2.12-70.87,20.76-92.18,53.42-35.67,54.68-20.26,127.92,34.42,163.58,24.27,15.84,52.2,21.59,78.88,18.33,2.04-.33,4.06-.7,6.06-1.1.64-.1.88-.79-.18-.79"/>
    </g>
    <path class="st0" d="M268.64,196.77c-2.32,4.13-4.94,8.12-7.86,11.92-7.03,9.16-15.76,17.25-26.09,23.78-47.08,29.78-109.38,15.76-139.15-31.32-14.92-23.59-18.84-51.01-13.11-76.24.22-.78-.36-1.07-.78-.12-14.2,30.16-13.16,66.71,5.98,96.96,29.77,47.08,92.08,61.1,139.15,31.32,4.46-2.82,8.62-5.94,12.48-9.3,14.59-12.73,24.8-29.05,30.15-46.77.22-.69-.32-1.02-.76-.23"/>
    <g>
        <path class="st0" d="M292.76,235.79l18.2-39.44h10.05l6.43,39.44h-8.01l-1.25-9.39h-12.76l-4.06,9.39h-8.62ZM308.36,219.38h9l-1.35-10.16c-.14-1.07-.28-2.15-.42-3.26-.14-1.1-.23-2.23-.26-3.37h-.11c-.31.99-.65,1.98-1.03,2.95-.38.98-.81,2.03-1.29,3.18l-4.53,10.66Z"/>
        <path class="st0" d="M343.98,236.34c-2.36,0-4.45-.42-6.29-1.27-1.84-.85-3.32-2.14-4.44-3.87-1.12-1.73-1.76-3.9-1.92-6.52-.16-2.54.05-4.98.62-7.32.57-2.34,1.51-4.43,2.81-6.27,1.3-1.84,2.97-3.3,5-4.39,2.03-1.09,4.43-1.63,7.19-1.63,3.39,0,5.97.77,7.74,2.32,1.77,1.55,2.73,3.52,2.88,5.91.1,1.58-.17,3.02-.81,4.31-.64,1.29-1.64,2.39-3,3.31-1.36.92-3.11,1.63-5.25,2.13-2.14.5-4.69.75-7.63.75h-1.38c-.02.22-.03.41-.02.58s.02.34.03.52c.1,1.62.65,2.91,1.65,3.87,1,.96,2.34,1.44,4.04,1.44,1.58,0,3.01-.18,4.27-.55,1.27-.37,2.76-.96,4.47-1.77l.38,6.13c-1.54.77-3.1,1.35-4.7,1.74-1.6.39-3.48.58-5.65.58ZM341.26,218.33c2.1,0,3.78-.22,5.04-.66,1.26-.44,2.17-1.04,2.73-1.79.56-.75.81-1.56.76-2.4-.05-.85-.34-1.48-.86-1.91-.52-.42-1.23-.64-2.11-.64-.99,0-1.97.31-2.92.94-.96.63-1.78,1.49-2.46,2.6-.69,1.1-1.15,2.39-1.39,3.87h1.22Z"/>
        <path class="st0" d="M360.21,235.79l4.48-30.16h6.68l-.23,5.19h.22c.73-1.25,1.51-2.31,2.34-3.18.83-.86,1.76-1.51,2.81-1.93,1.04-.42,2.24-.64,3.61-.64.44,0,.91.02,1.41.06.5.04.88.11,1.15.22l-1.27,8.01c-.42-.18-.89-.31-1.43-.39-.54-.07-1.1-.11-1.69-.11-1.03,0-1.98.21-2.86.64-.88.42-1.64,1.05-2.29,1.88-.65.83-1.19,1.82-1.64,2.98-.44,1.16-.78,2.48-1.02,3.95l-2.03,13.48h-8.23Z"/>
        <path class="st0" d="M394.87,236.34c-2.25,0-4.27-.47-6.08-1.41-1.81-.94-3.25-2.27-4.34-4-1.08-1.73-1.7-3.79-1.85-6.19-.13-2.13-.05-4.18.25-6.13.3-1.95.82-3.75,1.57-5.39.74-1.64,1.72-3.07,2.94-4.28,1.21-1.22,2.65-2.16,4.32-2.84,1.67-.68,3.57-1.02,5.71-1.02,2.36,0,4.41.47,6.16,1.41,1.75.94,3.15,2.3,4.2,4.09,1.05,1.79,1.65,3.93,1.81,6.43.13,2.03.05,4-.24,5.91-.29,1.91-.79,3.68-1.52,5.3-.73,1.62-1.68,3.04-2.86,4.25-1.18,1.22-2.61,2.16-4.3,2.84-1.69.68-3.62,1.02-5.79,1.02ZM395.12,229.71c.88,0,1.68-.23,2.39-.69.71-.46,1.33-1.09,1.87-1.91.54-.81.97-1.75,1.29-2.82.32-1.07.54-2.23.67-3.48.12-1.25.15-2.52.07-3.81-.06-1.03-.24-1.94-.53-2.73-.29-.79-.73-1.42-1.33-1.88-.6-.46-1.38-.69-2.33-.69s-1.86.28-2.6.83c-.74.55-1.37,1.28-1.88,2.18-.52.9-.93,1.92-1.25,3.07-.32,1.14-.53,2.31-.64,3.51-.11,1.2-.13,2.35-.06,3.45.1,1.62.51,2.85,1.22,3.7.72.85,1.75,1.27,3.12,1.27Z"/>
        <path class="st0" d="M424.55,235.79l5.89-39.44h22.09l-1.06,6.9h-13.7l-1.29,8.62h12.81l-1.06,6.9h-12.81l-1.53,10h13.75l-1,7.01h-22.09Z"/>
        <path class="st0" d="M453.55,235.79l4.53-30.16h6.19l-.21,5.58h.22c.7-1.22,1.49-2.28,2.37-3.2.88-.92,1.88-1.64,2.99-2.15,1.11-.52,2.36-.77,3.76-.77,1.73,0,3.2.36,4.4,1.08,1.2.72,2.13,1.72,2.78,3.01.65,1.29,1.03,2.82,1.14,4.58.04.66.03,1.41-.03,2.24-.06.83-.15,1.7-.28,2.62l-2.52,17.18h-8.12l2.6-17.62c.11-.63.18-1.21.22-1.74.04-.53.05-1.02.02-1.46-.07-1.14-.37-1.98-.9-2.51-.53-.53-1.27-.8-2.23-.8-1.22,0-2.29.52-3.22,1.57-.93,1.05-1.7,2.46-2.31,4.23-.61,1.77-1.09,3.72-1.43,5.85l-1.87,12.48h-8.12Z"/>
        <path class="st0" d="M495.52,249.04c-2.06,0-3.87-.17-5.42-.5-1.55-.33-2.93-.76-4.14-1.27l-.43-6.96c.87.44,1.82.84,2.84,1.19,1.02.35,2.08.63,3.2.83,1.12.2,2.23.3,3.33.3,1.91,0,3.43-.47,4.55-1.41,1.12-.94,1.83-2.29,2.12-4.06l.29-1.55c.07-.59.18-1.23.32-1.93.14-.7.29-1.33.44-1.88h-.22c-.58.81-1.22,1.54-1.94,2.18-.71.64-1.53,1.17-2.44,1.57-.91.4-2,.61-3.25.61-1.55,0-2.96-.37-4.24-1.1-1.28-.74-2.31-1.9-3.09-3.48-.78-1.58-1.25-3.66-1.41-6.24-.11-1.73-.04-3.54.21-5.44.25-1.9.7-3.72,1.34-5.47.65-1.75,1.48-3.33,2.49-4.75,1.02-1.42,2.24-2.54,3.68-3.37,1.44-.83,3.08-1.24,4.92-1.24,1.22,0,2.28.18,3.18.55.91.37,1.7.89,2.39,1.57.69.68,1.34,1.5,1.95,2.46h.22l1.35-4.03h6.52l-4.68,31.26c-.48,3.02-1.36,5.41-2.65,7.18-1.29,1.77-2.91,3.04-4.87,3.81-1.96.77-4.15,1.16-6.58,1.16ZM497.96,229.66c.66,0,1.29-.18,1.87-.55.58-.37,1.13-.87,1.65-1.52.51-.64.97-1.4,1.38-2.26.41-.86.74-1.79,1.02-2.76.27-.98.46-1.99.58-3.04.12-1.05.15-2.07.09-3.07-.09-1.4-.43-2.53-1.04-3.4-.61-.86-1.5-1.3-2.68-1.3-.85,0-1.61.25-2.3.75-.69.5-1.3,1.18-1.83,2.04-.54.87-.99,1.86-1.36,2.98-.37,1.12-.63,2.32-.77,3.59-.14,1.27-.17,2.55-.09,3.84.1,1.55.45,2.72,1.05,3.51.6.79,1.42,1.19,2.45,1.19Z"/>
        <path class="st0" d="M517.62,235.79l4.48-30.16h8.34l-4.59,30.16h-8.23ZM527.33,201.93c-1.22,0-2.24-.27-3.06-.8-.83-.53-1.27-1.39-1.35-2.57-.06-.99.09-1.84.45-2.54.36-.7.9-1.25,1.61-1.66.71-.4,1.6-.61,2.67-.61,1.18,0,2.17.26,2.98.77.81.52,1.24,1.36,1.32,2.54.09,1.47-.27,2.65-1.08,3.53-.81.88-1.99,1.33-3.53,1.33Z"/>
        <path class="st0" d="M533.58,235.79l4.53-30.16h6.19l-.21,5.58h.22c.7-1.22,1.49-2.28,2.37-3.2.88-.92,1.88-1.64,2.99-2.15,1.11-.52,2.36-.77,3.76-.77,1.73,0,3.2.36,4.4,1.08,1.2.72,2.13,1.72,2.78,3.01.65,1.29,1.03,2.82,1.14,4.58.04.66.03,1.41-.03,2.24-.06.83-.15,1.7-.28,2.62l-2.52,17.18h-8.12l2.6-17.62c.11-.63.18-1.21.22-1.74.04-.53.05-1.02.02-1.46-.07-1.14-.37-1.98-.9-2.51-.53-.53-1.27-.8-2.23-.8-1.22,0-2.29.52-3.22,1.57-.93,1.05-1.7,2.46-2.31,4.23s-1.09,3.72-1.43,5.85l-1.87,12.48h-8.12Z"/>
        <path class="st0" d="M578.68,236.34c-2.36,0-4.45-.42-6.29-1.27-1.84-.85-3.32-2.14-4.44-3.87-1.12-1.73-1.76-3.9-1.92-6.52-.16-2.54.05-4.98.62-7.32.57-2.34,1.51-4.43,2.81-6.27,1.3-1.84,2.97-3.3,5-4.39,2.03-1.09,4.43-1.63,7.19-1.63,3.39,0,5.97.77,7.74,2.32,1.77,1.55,2.73,3.52,2.88,5.91.1,1.58-.17,3.02-.81,4.31-.64,1.29-1.64,2.39-3,3.31-1.36.92-3.11,1.63-5.25,2.13-2.14.5-4.69.75-7.63.75h-1.38c-.02.22-.03.41-.02.58s.02.34.03.52c.1,1.62.65,2.91,1.65,3.87,1,.96,2.34,1.44,4.04,1.44,1.58,0,3.01-.18,4.27-.55,1.27-.37,2.76-.96,4.47-1.77l.38,6.13c-1.54.77-3.1,1.35-4.7,1.74-1.6.39-3.48.58-5.65.58ZM575.96,218.33c2.1,0,3.78-.22,5.04-.66,1.26-.44,2.17-1.04,2.73-1.79.56-.75.81-1.56.76-2.4-.05-.85-.34-1.48-.86-1.91-.52-.42-1.23-.64-2.11-.64-.99,0-1.97.31-2.92.94-.96.63-1.78,1.49-2.46,2.6-.69,1.1-1.15,2.39-1.39,3.87h1.22Z"/>
        <path class="st0" d="M604.25,236.34c-1.95,0-3.68-.16-5.19-.47-1.51-.31-2.85-.75-4.03-1.3l-.43-6.85c1.45.77,2.89,1.36,4.34,1.77,1.44.41,2.92.61,4.43.61.85,0,1.63-.1,2.36-.3.72-.2,1.3-.52,1.74-.94.43-.42.63-.98.59-1.68-.03-.55-.18-1.03-.45-1.44-.27-.4-.73-.85-1.38-1.33-.66-.48-1.65-1.07-2.98-1.77-1.34-.74-2.46-1.51-3.38-2.32-.92-.81-1.62-1.71-2.1-2.71-.49-.99-.77-2.12-.84-3.37-.11-1.84.22-3.45,1-4.83.78-1.38,2.01-2.45,3.69-3.2,1.68-.75,3.78-1.13,6.28-1.13,1.91,0,3.7.22,5.34.66,1.65.44,3.2,1.07,4.65,1.88l-2.25,5.63c-1.03-.59-2.18-1.11-3.44-1.57-1.26-.46-2.54-.69-3.83-.69-.99,0-1.78.24-2.36.72-.58.48-.84,1.14-.79,1.99.03.44.18.86.46,1.24.28.39.74.77,1.37,1.16.63.39,1.46.86,2.49,1.41,1.41.7,2.59,1.45,3.57,2.26.97.81,1.74,1.72,2.3,2.73.56,1.01.88,2.16.96,3.45.14,2.32-.26,4.25-1.21,5.8-.95,1.55-2.36,2.7-4.23,3.45-1.87.75-4.09,1.13-6.67,1.13Z"/>
    </g>
    <polygon class="st0" points="238.59 176.51 236.02 117.43 204.27 176.51 190.23 176.51 175.09 115.52 155.98 176.51 132.27 176.51 162.4 84.13 186.98 84.13 201.44 142.81 232.78 84.13 256.69 84.13 261.02 176.51 238.59 176.51"/>
    <polygon class="st0" points="281.75 176.51 292.55 102.95 263.11 102.95 265.94 84.13 348.2 84.13 345.5 102.95 315.92 102.95 304.98 176.51 281.75 176.51"/>
    <path class="st0" d="M377.24,84.13l-7.02,48.29c-1.22,8.46-2.71,24.55,19.45,24.55,10.54,0,20.53-4.5,22.83-19.78l7.96-53.06h23.23s-8.1,56.48-8.1,56.48c-3.65,25.1-21.34,37.1-45.79,37.1-35.7,0-43.96-22.1-43.96-33.96,0-1.91.27-7.64,1.22-13.78l6.91-45.84h23.27Z"/>
</svg>
